<svg width="530" height="40" viewBox="0 0 530 40" fill="none" xmlns="http://www.w3.org/2000/svg">
<g clip-path="url(#clip0_5_61)">
<path d="M0.840915 11.0235C0.634374 10.6936 0.442587 10.2436 0.265552 9.67372C0.0885173 9.10379 0 8.50387 0 7.87395C0 6.70409 0.250799 5.8642 0.752398 5.35426C1.2835 4.84432 1.96213 4.58936 2.7883 4.58936H22.0851C22.2916 4.91931 22.4834 5.36926 22.6604 5.93919C22.8375 6.50912 22.926 7.10904 22.926 7.73896C22.926 8.90882 22.6604 9.74871 22.1293 10.2586C21.6277 10.7686 20.9639 11.0235 20.1377 11.0235H15.225V31.8109C14.9004 31.9009 14.3841 31.9909 13.6759 32.0809C12.9973 32.1709 12.3187 32.2159 11.64 32.2159C10.9614 32.2159 10.3565 32.1559 9.82543 32.0359C9.32383 31.9459 8.896 31.7659 8.54193 31.496C8.18786 31.226 7.9223 30.851 7.74527 30.3711C7.56823 29.8912 7.47972 29.2612 7.47972 28.4813V11.0235H0.840915Z" fill="#3077C6"/>
<path d="M31.8497 31.9461C31.5546 32.0361 31.0825 32.1261 30.4334 32.2161C29.8138 32.3061 29.1646 32.3511 28.486 32.3511C27.8369 32.3511 27.2467 32.3061 26.7156 32.2161C26.214 32.1261 25.7862 31.9461 25.4321 31.6761C25.0781 31.4062 24.7978 31.0462 24.5912 30.5963C24.4142 30.1163 24.3257 29.5014 24.3257 28.7515V15.2532C24.3257 14.5633 24.4437 13.9784 24.6797 13.4984C24.9453 12.9885 25.3141 12.5385 25.7862 12.1486C26.2583 11.7586 26.8337 11.4137 27.5123 11.1137C28.2204 10.7838 28.9728 10.4988 29.7695 10.2588C30.5662 10.0188 31.3923 9.83886 32.248 9.71887C33.1036 9.56889 33.9593 9.4939 34.815 9.4939C36.2313 9.4939 37.3525 9.77887 38.1786 10.3488C39.0048 10.8887 39.4179 11.7886 39.4179 13.0485C39.4179 13.4684 39.3589 13.8884 39.2409 14.3083C39.1228 14.6983 38.9753 15.0582 38.7983 15.3882C38.1786 15.3882 37.5443 15.4182 36.8951 15.4782C36.246 15.5382 35.6116 15.6281 34.992 15.7481C34.3724 15.8681 33.7823 16.0031 33.2217 16.1531C32.6906 16.2731 32.2332 16.423 31.8497 16.603V31.9461Z" fill="#3077C6"/>
<path d="M42.3447 4.04949C42.3447 2.90964 42.7136 1.94976 43.4512 1.16985C44.2184 0.389951 45.2215 0 46.4608 0C47.7 0 48.6885 0.389951 49.4261 1.16985C50.1933 1.94976 50.5769 2.90964 50.5769 4.04949C50.5769 5.18935 50.1933 6.14923 49.4261 6.92913C48.6885 7.70904 47.7 8.09899 46.4608 8.09899C45.2215 8.09899 44.2184 7.70904 43.4512 6.92913C42.7136 6.14923 42.3447 5.18935 42.3447 4.04949ZM50.2228 31.946C49.8982 32.006 49.4114 32.081 48.7622 32.171C48.1426 32.291 47.5083 32.351 46.8591 32.351C46.21 32.351 45.6199 32.306 45.0888 32.216C44.5872 32.126 44.1593 31.946 43.8053 31.676C43.4512 31.4061 43.1709 31.0461 42.9644 30.5962C42.7873 30.1162 42.6988 29.5013 42.6988 28.7514V10.4387C43.0234 10.3787 43.4955 10.3037 44.1151 10.2137C44.7642 10.0937 45.4133 10.0337 46.0625 10.0337C46.7116 10.0337 47.287 10.0787 47.7886 10.1687C48.3197 10.2587 48.7622 10.4387 49.1163 10.7087C49.4704 10.9786 49.7359 11.3536 49.913 11.8335C50.1195 12.2835 50.2228 12.8834 50.2228 13.6333V31.946Z" fill="#3077C6"/>
<path d="M64.8824 9.44873C66.6528 9.44873 68.2904 9.6887 69.7951 10.1686C71.3295 10.6186 72.6425 11.3235 73.7342 12.2834C74.8259 13.2432 75.6815 14.4581 76.3012 15.9279C76.9208 17.3677 77.2306 19.0925 77.2306 21.1023C77.2306 23.022 76.9651 24.7018 76.434 26.1416C75.9028 27.5815 75.1505 28.7963 74.1768 29.7862C73.2031 30.7461 72.0228 31.466 70.6361 31.9459C69.2788 32.4258 67.7592 32.6658 66.0774 32.6658C64.8087 32.6658 63.6284 32.4708 62.5367 32.0809V39.55C62.2417 39.6399 61.7696 39.7299 61.1204 39.8199C60.4713 39.9399 59.8074 39.9999 59.1288 39.9999C58.4797 39.9999 57.8896 39.9549 57.3585 39.8649C56.8569 39.7749 56.429 39.595 56.075 39.325C55.7209 39.055 55.4553 38.6801 55.2783 38.2001C55.1013 37.7502 55.0127 37.1503 55.0127 36.4003V14.803C55.0127 13.9932 55.175 13.3332 55.4996 12.8233C55.8537 12.3134 56.3258 11.8484 56.9159 11.4285C57.8306 10.8285 58.9665 10.3486 60.3238 9.98866C61.6811 9.62871 63.2006 9.44873 64.8824 9.44873ZM64.971 26.6366C68.01 26.6366 69.5296 24.7918 69.5296 21.1023C69.5296 19.1825 69.146 17.7577 68.3789 16.8278C67.6412 15.8979 66.5643 15.433 65.148 15.433C64.5874 15.433 64.0858 15.508 63.6432 15.6579C63.2006 15.7779 62.817 15.9279 62.4925 16.1079V26.0066C62.8465 26.1866 63.2301 26.3366 63.6432 26.4566C64.0563 26.5766 64.4989 26.6366 64.971 26.6366Z" fill="#3077C6"/>
<path d="M105.466 31.8111C105.141 31.9011 104.625 31.9911 103.917 32.0811C103.238 32.1711 102.56 32.2161 101.881 32.2161C101.202 32.2161 100.598 32.1561 100.066 32.0361C99.5649 31.9461 99.137 31.7661 98.783 31.4962C98.4289 31.2262 98.1633 30.8512 97.9863 30.3713C97.8093 29.8914 97.7207 29.2614 97.7207 28.4815V21.4624H89.2231V31.8111C88.8985 31.9011 88.3822 31.9911 87.674 32.0811C86.9954 32.1711 86.3168 32.2161 85.6381 32.2161C84.9595 32.2161 84.3546 32.1561 83.8235 32.0361C83.3219 31.9461 82.8941 31.7661 82.54 31.4962C82.1859 31.2262 81.9204 30.8512 81.7434 30.3713C81.5663 29.8914 81.4778 29.2614 81.4778 28.4815V4.72453C81.8024 4.66454 82.3187 4.58955 83.0269 4.49956C83.735 4.37957 84.4136 4.31958 85.0628 4.31958C85.7414 4.31958 86.3315 4.37957 86.8331 4.49956C87.3642 4.58955 87.8068 4.76952 88.1609 5.03949C88.5149 5.30946 88.7805 5.68441 88.9575 6.16435C89.1346 6.64429 89.2231 7.27421 89.2231 8.05411V15.2532H97.7207V4.72453C98.0453 4.66454 98.5617 4.58955 99.2698 4.49956C99.9779 4.37957 100.657 4.31958 101.306 4.31958C101.984 4.31958 102.574 4.37957 103.076 4.49956C103.607 4.58955 104.05 4.76952 104.404 5.03949C104.758 5.30946 105.023 5.68441 105.2 6.16435C105.377 6.64429 105.466 7.27421 105.466 8.05411V31.8111Z" fill="#3077C6"/>
<path d="M132.901 21.0573C132.901 22.917 132.621 24.5818 132.06 26.0516C131.499 27.4915 130.703 28.7063 129.67 29.6962C128.667 30.6861 127.457 31.436 126.041 31.9459C124.624 32.4558 123.046 32.7108 121.305 32.7108C119.564 32.7108 117.986 32.4408 116.569 31.9009C115.153 31.361 113.929 30.5961 112.896 29.6062C111.893 28.5863 111.111 27.3565 110.55 25.9167C109.99 24.4768 109.709 22.857 109.709 21.0573C109.709 19.2875 109.99 17.6827 110.55 16.2429C111.111 14.803 111.893 13.5882 112.896 12.5983C113.929 11.5785 115.153 10.7985 116.569 10.2586C117.986 9.71869 119.564 9.44873 121.305 9.44873C123.046 9.44873 124.624 9.73369 126.041 10.3036C127.457 10.8435 128.667 11.6234 129.67 12.6433C130.703 13.6332 131.499 14.848 132.06 16.2879C132.621 17.7277 132.901 19.3175 132.901 21.0573ZM117.41 21.0573C117.41 22.887 117.75 24.2969 118.428 25.2867C119.136 26.2466 120.11 26.7266 121.349 26.7266C122.589 26.7266 123.533 26.2316 124.182 25.2417C124.861 24.2519 125.2 22.857 125.2 21.0573C125.2 19.2575 124.861 17.8777 124.182 16.9178C123.503 15.9279 122.544 15.433 121.305 15.433C120.066 15.433 119.107 15.9279 118.428 16.9178C117.75 17.8777 117.41 19.2575 117.41 21.0573Z" fill="#3077C6"/>
<path d="M136.572 10.4387C136.867 10.3487 137.324 10.2587 137.944 10.1687C138.593 10.0787 139.257 10.0337 139.935 10.0337C140.584 10.0337 141.16 10.0787 141.661 10.1687C142.192 10.2587 142.635 10.4387 142.989 10.7087C143.343 10.9786 143.609 11.3536 143.786 11.8335C143.992 12.2835 144.096 12.8834 144.096 13.6333V23.3071C144.096 24.5369 144.391 25.4218 144.981 25.9618C145.571 26.4717 146.426 26.7267 147.548 26.7267C148.226 26.7267 148.772 26.6667 149.185 26.5467C149.628 26.4267 149.967 26.3067 150.203 26.1867V10.4387C150.498 10.3487 150.956 10.2587 151.575 10.1687C152.224 10.0787 152.888 10.0337 153.567 10.0337C154.216 10.0337 154.791 10.0787 155.293 10.1687C155.824 10.2587 156.267 10.4387 156.621 10.7087C156.975 10.9786 157.24 11.3536 157.417 11.8335C157.624 12.2835 157.727 12.8834 157.727 13.6333V27.3116C157.727 28.8114 157.108 29.9363 155.868 30.6862C154.836 31.3461 153.596 31.841 152.151 32.171C150.734 32.5309 149.185 32.7109 147.503 32.7109C145.91 32.7109 144.435 32.5309 143.078 32.171C141.75 31.811 140.599 31.2561 139.625 30.5062C138.652 29.7563 137.899 28.7964 137.368 27.6265C136.837 26.4267 136.572 24.9869 136.572 23.3071V10.4387Z" fill="#3077C6"/>
<path d="M180.478 25.4668C180.478 27.7465 179.637 29.5313 177.955 30.8211C176.273 32.111 173.794 32.7559 170.519 32.7559C169.28 32.7559 168.129 32.6659 167.067 32.4859C166.005 32.306 165.09 32.036 164.323 31.676C163.586 31.2861 162.995 30.8061 162.553 30.2362C162.14 29.6663 161.933 28.9914 161.933 28.2115C161.933 27.4916 162.081 26.8916 162.376 26.4117C162.671 25.9018 163.025 25.4818 163.438 25.1519C164.294 25.6318 165.267 26.0667 166.359 26.4567C167.48 26.8166 168.764 26.9966 170.21 26.9966C171.124 26.9966 171.818 26.8616 172.29 26.5917C172.791 26.3217 173.042 25.9618 173.042 25.5118C173.042 25.0919 172.865 24.7619 172.511 24.5219C172.157 24.282 171.567 24.087 170.741 23.937L169.413 23.667C166.846 23.1571 164.928 22.3622 163.659 21.2823C162.42 20.1725 161.8 18.5977 161.8 16.5579C161.8 15.4481 162.036 14.4432 162.509 13.5433C162.981 12.6434 163.645 11.8935 164.5 11.2936C165.356 10.6937 166.374 10.2287 167.554 9.89875C168.764 9.56879 170.092 9.40381 171.537 9.40381C172.629 9.40381 173.647 9.4938 174.591 9.67378C175.565 9.82376 176.406 10.0637 177.114 10.3937C177.822 10.7237 178.383 11.1586 178.796 11.6985C179.209 12.2085 179.415 12.8234 179.415 13.5433C179.415 14.2332 179.283 14.8331 179.017 15.3431C178.781 15.823 178.471 16.228 178.088 16.5579C177.852 16.4079 177.497 16.258 177.025 16.108C176.553 15.928 176.037 15.778 175.476 15.658C174.916 15.5081 174.34 15.3881 173.75 15.2981C173.19 15.2081 172.673 15.1631 172.201 15.1631C171.227 15.1631 170.475 15.2831 169.944 15.5231C169.413 15.733 169.147 16.078 169.147 16.5579C169.147 16.8879 169.295 17.1579 169.59 17.3678C169.885 17.5778 170.446 17.7728 171.272 17.9528L172.644 18.2677C175.476 18.9276 177.483 19.8425 178.663 21.0124C179.873 22.1522 180.478 23.637 180.478 25.4668Z" fill="#3077C6"/>
<path d="M195.706 32.7108C193.965 32.7108 192.342 32.4708 190.837 31.9909C189.362 31.481 188.064 30.7311 186.942 29.7412C185.851 28.7513 184.98 27.5065 184.331 26.0066C183.712 24.5068 183.402 22.7521 183.402 20.7423C183.402 18.7626 183.712 17.0678 184.331 15.6579C184.98 14.2181 185.821 13.0483 186.854 12.1484C187.887 11.2185 189.067 10.5436 190.395 10.1236C191.722 9.6737 193.08 9.44873 194.466 9.44873C196.03 9.44873 197.447 9.6887 198.715 10.1686C200.014 10.6486 201.12 11.3085 202.035 12.1484C202.979 12.9883 203.702 13.9932 204.203 15.163C204.734 16.3329 205 17.6077 205 18.9875C205 20.0074 204.72 20.7873 204.159 21.3272C203.598 21.8672 202.817 22.2121 201.813 22.3621L190.881 24.0269C191.206 25.0168 191.87 25.7667 192.873 26.2766C193.876 26.7566 195.027 26.9965 196.325 26.9965C197.535 26.9965 198.671 26.8465 199.733 26.5466C200.825 26.2166 201.71 25.8417 202.389 25.4217C202.861 25.7217 203.259 26.1416 203.584 26.6816C203.908 27.2215 204.071 27.7914 204.071 28.3914C204.071 29.7412 203.451 30.7461 202.212 31.406C201.268 31.9159 200.205 32.2609 199.025 32.4408C197.845 32.6208 196.738 32.7108 195.706 32.7108ZM194.466 15.028C193.758 15.028 193.139 15.148 192.608 15.388C192.106 15.6279 191.693 15.9429 191.368 16.3329C191.044 16.6928 190.793 17.1128 190.616 17.5927C190.468 18.0426 190.38 18.5076 190.35 18.9875L197.919 17.7277C197.83 17.1278 197.506 16.5278 196.945 15.9279C196.384 15.328 195.558 15.028 194.466 15.028Z" fill="#3077C6"/>
</g>
<g clip-path="url(#clip1_5_61)">
<path d="M230.61 15.6101V9.38992H224.39L220 5L215.61 9.38992H209.39V15.6101L205 20L209.39 24.3899V30.6101H215.61L220 35L224.39 30.6101H230.61V24.3899L235 20L230.61 15.6101ZM220 27.9576C218.82 27.9576 217.692 27.6923 216.684 27.2281C219.416 25.9682 221.326 23.2096 221.326 20C221.326 16.7905 219.416 14.0318 216.684 12.7719C217.692 12.3077 218.82 12.0424 220 12.0424C224.39 12.0424 227.958 15.6101 227.958 20C227.958 24.3899 224.39 27.9576 220 27.9576Z" fill="white"/>
</g>
<g clip-path="url(#clip2_5_61)">
<path d="M405 39.9999H280C277.25 39.9999 275 37.75 275 35V4.99999C275 2.25 277.25 0 280 0H405C407.75 0 410 2.25 410 4.99999V35C410 37.75 407.75 39.9999 405 39.9999Z" fill="black"/>
<path d="M405 0.799999C407.32 0.799999 409.2 2.68 409.2 4.99999V35C409.2 37.32 407.32 39.2 405 39.2H280C277.68 39.2 275.8 37.32 275.8 35V4.99999C275.8 2.68 277.68 0.799999 280 0.799999H405ZM405 0H280C277.25 0 275 2.25 275 4.99999V35C275 37.75 277.25 39.9999 280 39.9999H405C407.75 39.9999 410 37.75 410 35V4.99999C410 2.25 407.75 0 405 0Z" fill="#A6A6A6"/>
<path d="M322.42 10.2399C322.42 11.0799 322.17 11.7499 321.67 12.2399C321.11 12.8299 320.37 13.1299 319.47 13.1299C318.6 13.1299 317.87 12.8299 317.26 12.2299C316.65 11.6299 316.35 10.8799 316.35 9.99991C316.35 9.1099 316.65 8.36989 317.26 7.76988C317.87 7.16988 318.6 6.86987 319.47 6.86987C319.9 6.86987 320.31 6.94987 320.7 7.11988C321.09 7.28988 321.4 7.50988 321.64 7.78988L321.11 8.31989C320.71 7.84988 320.17 7.60988 319.47 7.60988C318.84 7.60988 318.29 7.82988 317.83 8.27989C317.37 8.7199 317.14 9.2999 317.14 10.0099C317.14 10.7199 317.37 11.2999 317.83 11.7399C318.29 12.1799 318.84 12.4099 319.47 12.4099C320.14 12.4099 320.7 12.1899 321.15 11.7399C321.44 11.4499 321.61 11.0399 321.65 10.5199H319.47V9.79991H322.38C322.4 9.94991 322.42 10.0999 322.42 10.2399Z" fill="white" stroke="white" stroke-width="0.2" stroke-miterlimit="10"/>
<path d="M327.03 7.74H324.3V9.64H326.76V10.36H324.3V12.26H327.03V13H323.53V7H327.03V7.74Z" fill="white" stroke="white" stroke-width="0.2" stroke-miterlimit="10"/>
<path d="M330.28 13H329.51V7.74H327.83V7H331.95V7.74H330.27V13H330.28Z" fill="white" stroke="white" stroke-width="0.2" stroke-miterlimit="10"/>
<path d="M334.94 13V7H335.71V13H334.94Z" fill="white" stroke="white" stroke-width="0.2" stroke-miterlimit="10"/>
<path d="M339.13 13H338.36V7.74H336.68V7H340.8V7.74H339.12V13H339.13Z" fill="white" stroke="white" stroke-width="0.2" stroke-miterlimit="10"/>
<path d="M348.61 12.2199C348.02 12.8299 347.29 13.1299 346.41 13.1299C345.53 13.1299 344.8 12.8299 344.21 12.2199C343.62 11.6099 343.33 10.8699 343.33 9.99991C343.33 9.1299 343.62 8.37989 344.21 7.77988C344.8 7.16988 345.53 6.86987 346.41 6.86987C347.28 6.86987 348.01 7.16988 348.61 7.77988C349.2 8.38989 349.5 9.1299 349.5 9.99991C349.49 10.8799 349.2 11.6199 348.61 12.2199ZM344.78 11.7199C345.22 12.1699 345.77 12.3899 346.41 12.3899C347.05 12.3899 347.6 12.1699 348.04 11.7199C348.48 11.2699 348.71 10.6999 348.71 9.99991C348.71 9.2999 348.49 8.7299 348.04 8.27989C347.6 7.82988 347.05 7.60988 346.41 7.60988C345.77 7.60988 345.22 7.82988 344.78 8.27989C344.34 8.7299 344.11 9.2999 344.11 9.99991C344.11 10.6999 344.34 11.2699 344.78 11.7199Z" fill="white" stroke="white" stroke-width="0.2" stroke-miterlimit="10"/>
<path d="M350.58 13V7H351.52L354.44 11.67H354.47L354.44 10.51V7H355.21V13H354.41L351.36 8.11H351.33L351.36 9.27V13H350.58Z" fill="white" stroke="white" stroke-width="0.2" stroke-miterlimit="10"/>
<path d="M343.14 21.7499C340.79 21.7499 338.87 23.5399 338.87 25.9999C338.87 28.4499 340.79 30.2499 343.14 30.2499C345.49 30.2499 347.41 28.4499 347.41 25.9999C347.41 23.5399 345.49 21.7499 343.14 21.7499ZM343.14 28.5799C341.85 28.5799 340.74 27.5199 340.74 25.9999C340.74 24.4699 341.85 23.4199 343.14 23.4199C344.43 23.4199 345.54 24.4699 345.54 25.9999C345.54 27.5199 344.42 28.5799 343.14 28.5799ZM333.82 21.7499C331.47 21.7499 329.55 23.5399 329.55 25.9999C329.55 28.4499 331.47 30.2499 333.82 30.2499C336.17 30.2499 338.09 28.4499 338.09 25.9999C338.09 23.5399 336.17 21.7499 333.82 21.7499ZM333.82 28.5799C332.53 28.5799 331.42 27.5199 331.42 25.9999C331.42 24.4699 332.53 23.4199 333.82 23.4199C335.11 23.4199 336.22 24.4699 336.22 25.9999C336.22 27.5199 335.11 28.5799 333.82 28.5799ZM322.74 23.0599V24.8599H327.06C326.93 25.8699 326.59 26.6199 326.08 27.1299C325.45 27.7599 324.47 28.4499 322.75 28.4499C320.09 28.4499 318.01 26.3099 318.01 23.6499C318.01 20.9899 320.09 18.8498 322.75 18.8498C324.18 18.8498 325.23 19.4098 326 20.1398L327.27 18.8698C326.19 17.8398 324.76 17.0498 322.74 17.0498C319.1 17.0498 316.04 20.0098 316.04 23.6599C316.04 27.2999 319.1 30.2699 322.74 30.2699C324.71 30.2699 326.19 29.6299 327.35 28.4199C328.54 27.2299 328.91 25.5499 328.91 24.1999C328.91 23.7799 328.88 23.3899 328.81 23.0699H322.74V23.0599ZM368.05 24.4599C367.7 23.5099 366.62 21.7499 364.41 21.7499C362.22 21.7499 360.4 23.4699 360.4 25.9999C360.4 28.3799 362.2 30.2499 364.62 30.2499C366.57 30.2499 367.7 29.0599 368.16 28.3699L366.71 27.3999C366.23 28.1099 365.57 28.5799 364.62 28.5799C363.67 28.5799 362.99 28.1399 362.56 27.2899L368.25 24.9399L368.05 24.4599ZM362.25 25.8799C362.2 24.2399 363.52 23.3999 364.47 23.3999C365.21 23.3999 365.84 23.7699 366.05 24.2999L362.25 25.8799ZM357.63 29.9999H359.5V17.4998H357.63V29.9999ZM354.57 22.6999H354.5C354.08 22.1999 353.28 21.7499 352.26 21.7499C350.13 21.7499 348.18 23.6199 348.18 26.0199C348.18 28.3999 350.13 30.2599 352.26 30.2599C353.27 30.2599 354.08 29.8099 354.5 29.2899H354.56V29.8999C354.56 31.5299 353.69 32.3999 352.29 32.3999C351.15 32.3999 350.44 31.5799 350.15 30.8899L348.52 31.5699C348.99 32.6999 350.23 34.0799 352.29 34.0799C354.48 34.0799 356.33 32.7899 356.33 29.6499V22.0099H354.56V22.6999H354.57ZM352.42 28.5799C351.13 28.5799 350.05 27.4999 350.05 26.0199C350.05 24.5199 351.13 23.4299 352.42 23.4299C353.69 23.4299 354.69 24.5299 354.69 26.0199C354.7 27.4999 353.7 28.5799 352.42 28.5799ZM376.81 17.4998H372.34V29.9999H374.21V25.2599H376.82C378.89 25.2599 380.92 23.7599 380.92 21.3799C380.92 18.9998 378.87 17.4998 376.81 17.4998ZM376.85 23.5199H374.2V19.2298H376.85C378.25 19.2298 379.04 20.3898 379.04 21.3699C379.04 22.3499 378.25 23.5199 376.85 23.5199ZM388.39 21.7299C387.04 21.7299 385.64 22.3299 385.06 23.6399L386.72 24.3299C387.07 23.6399 387.73 23.4099 388.42 23.4099C389.38 23.4099 390.37 23.9899 390.38 25.0199V25.1499C390.04 24.9599 389.32 24.6699 388.43 24.6699C386.64 24.6699 384.83 25.6499 384.83 27.4799C384.83 29.1499 386.29 30.2299 387.93 30.2299C389.18 30.2299 389.88 29.6699 390.31 29.0099H390.37V29.9799H392.17V25.1899C392.18 22.9699 390.52 21.7299 388.39 21.7299ZM388.16 28.5799C387.55 28.5799 386.7 28.2699 386.7 27.5199C386.7 26.5599 387.76 26.1899 388.68 26.1899C389.5 26.1899 389.89 26.3699 390.38 26.6099C390.24 27.7599 389.24 28.5799 388.16 28.5799ZM398.74 21.9999L396.6 27.4199H396.54L394.32 21.9999H392.31L395.64 29.5799L393.74 33.7899H395.69L400.82 21.9999H398.74ZM381.94 29.9999H383.81V17.4998H381.94V29.9999Z" fill="white"/>
<path d="M285.44 7.53997C285.15 7.84997 284.98 8.32997 284.98 8.93997V31.0599C284.98 31.6799 285.15 32.1599 285.44 32.4599L285.51 32.5299L297.9 20.1499V19.9999V19.8499L285.51 7.46997L285.44 7.53997Z" fill="url(#paint0_linear_5_61)"/>
<path d="M302.03 24.2799L297.9 20.1499V19.9999V19.8499L302.03 15.72L302.12 15.77L307.01 18.55C308.41 19.3399 308.41 20.6399 307.01 21.4399L302.12 24.2199L302.03 24.2799Z" fill="url(#paint1_linear_5_61)"/>
<path d="M302.12 24.22L297.9 20L285.44 32.46C285.9 32.95 286.66 33.01 287.52 32.52L302.12 24.22Z" fill="url(#paint2_linear_5_61)"/>
<path d="M302.12 15.78L287.51 7.47999C286.65 6.98999 285.89 7.04999 285.43 7.53999L297.9 20L302.12 15.78Z" fill="url(#paint3_linear_5_61)"/>
<path opacity="0.2" d="M302.03 24.1299L287.51 32.3799C286.7 32.8399 285.97 32.8099 285.51 32.3899L285.44 32.4599L285.51 32.5299C285.98 32.9499 286.7 32.9799 287.51 32.5199L302.12 24.2199L302.03 24.1299Z" fill="black"/>
<path opacity="0.12" d="M285.44 32.3201C285.15 32.0101 284.98 31.5302 284.98 30.9202V31.0702C284.98 31.6901 285.15 32.1701 285.44 32.4701L285.51 32.4001L285.44 32.3201Z" fill="black"/>
<path opacity="0.12" d="M307.01 21.3L302.02 24.1301L302.11 24.2201L307 21.44C307.7 21.04 308.05 20.52 308.05 20C308 20.47 307.65 20.94 307.01 21.3Z" fill="black"/>
<path opacity="0.25" d="M287.51 7.61994L307.01 18.7C307.64 19.06 308 19.52 308.06 20C308.06 19.48 307.71 18.95 307.01 18.56L287.51 7.47994C286.11 6.68994 284.97 7.34994 284.97 8.94994V9.09994C284.97 7.48994 286.12 6.82994 287.51 7.61994Z" fill="white"/>
</g>
<g clip-path="url(#clip3_5_61)">
<path d="M520.135 0.00013H419.535C419.168 0.00013 418.806 0.00013 418.44 0.00212999C418.134 0.00412999 417.83 0.00993997 417.521 0.01483C416.85 0.0227317 416.18 0.081806 415.517 0.191539C414.856 0.303662 414.215 0.515044 413.616 0.818537C413.018 1.1246 412.472 1.52229 411.998 1.99719C411.52 2.47076 411.122 3.01814 410.819 3.61828C410.515 4.21723 410.305 4.85905 410.194 5.52159C410.083 6.1833 410.023 6.85263 410.015 7.52359C410.006 7.83018 410.005 8.1378 410 8.44444V31.5586C410.005 31.8691 410.006 32.1699 410.015 32.4805C410.023 33.1514 410.083 33.8207 410.194 34.4824C410.304 35.1453 410.515 35.7875 410.819 36.3867C411.122 36.9849 411.52 37.5301 411.998 38.001C412.471 38.478 413.017 38.876 413.616 39.1797C414.215 39.484 414.855 39.6967 415.517 39.8105C416.18 39.9194 416.85 39.9785 417.521 39.9873C417.83 39.9941 418.134 39.998 418.44 39.998C418.806 40 419.168 40 419.535 40H520.135C520.494 40 520.859 40 521.219 39.998C521.523 39.998 521.836 39.9941 522.141 39.9873C522.811 39.9789 523.479 39.9198 524.141 39.8105C524.804 39.6959 525.448 39.4833 526.049 39.1797C526.647 38.8758 527.193 38.4779 527.666 38.001C528.142 37.5282 528.541 36.9835 528.848 36.3867C529.15 35.7871 529.358 35.145 529.467 34.4824C529.578 33.8207 529.64 33.1515 529.652 32.4805C529.656 32.1699 529.656 31.8691 529.656 31.5586C529.664 31.1953 529.664 30.834 529.664 30.4648V9.53623C529.664 9.17002 529.664 8.80674 529.656 8.44444C529.656 8.1378 529.656 7.83018 529.652 7.52355C529.64 6.85253 529.578 6.18335 529.467 5.52155C529.358 4.8594 529.149 4.21762 528.848 3.61824C528.23 2.41532 527.252 1.43615 526.049 0.818447C525.448 0.515696 524.804 0.304369 524.141 0.191449C523.48 0.0812325 522.811 0.0221377 522.141 0.01469C521.836 0.00980997 521.523 0.00394999 521.219 0.00199999C520.859 0 520.494 0.00013 520.135 0.00013Z" fill="#A6A6A6"/>
<path d="M418.445 39.1249C418.14 39.1249 417.843 39.121 417.541 39.1142C416.914 39.1061 416.29 39.0516 415.671 38.9511C415.095 38.8519 414.537 38.6672 414.015 38.4032C413.498 38.1415 413.026 37.7982 412.618 37.3866C412.204 36.9799 411.859 36.5082 411.597 35.9901C411.333 35.4687 411.149 34.9098 411.054 34.3329C410.951 33.7131 410.896 33.0863 410.888 32.458C410.881 32.2471 410.873 31.5449 410.873 31.5449V8.44433C410.873 8.44433 410.882 7.75292 410.888 7.54979C410.895 6.92247 410.951 6.29664 411.053 5.67772C411.149 5.09924 411.332 4.53874 411.597 4.01562C411.857 3.49794 412.2 3.02586 412.612 2.61768C413.023 2.20562 413.496 1.8606 414.014 1.59521C414.535 1.33209 415.092 1.14873 415.668 1.05127C416.288 0.949836 416.915 0.894996 417.543 0.88721L418.445 0.875H521.214L522.127 0.8877C522.75 0.895099 523.371 0.94945 523.985 1.05029C524.566 1.14898 525.13 1.33362 525.656 1.59814C526.694 2.13299 527.539 2.97916 528.071 4.01807C528.332 4.53757 528.512 5.0935 528.606 5.66698C528.71 6.29098 528.768 6.92173 528.78 7.55419C528.783 7.83739 528.783 8.14159 528.783 8.44433C528.791 8.81932 528.791 9.17625 528.791 9.53611V30.4648C528.791 30.8281 528.791 31.1826 528.783 31.54C528.783 31.8652 528.783 32.1631 528.779 32.4697C528.768 33.0908 528.71 33.7103 528.608 34.3231C528.515 34.9042 528.333 35.4675 528.068 35.9931C527.805 36.5056 527.462 36.9732 527.053 37.3788C526.644 37.7926 526.172 38.1379 525.653 38.4013C525.128 38.6673 524.566 38.8527 523.985 38.9511C523.367 39.0521 522.742 39.1066 522.116 39.1142C521.823 39.121 521.517 39.1249 521.219 39.1249L520.135 39.1269L418.445 39.1249Z" fill="black"/>
<path d="M434.769 20.3008C434.78 19.4662 435.001 18.6478 435.414 17.9218C435.826 17.1959 436.414 16.5859 437.126 16.1487C436.674 15.5036 436.078 14.9726 435.385 14.5981C434.692 14.2235 433.922 14.0157 433.134 13.9911C431.455 13.8148 429.827 14.9959 428.972 14.9959C428.099 14.9959 426.782 14.0086 425.363 14.0377C424.445 14.0674 423.551 14.3342 422.767 14.8123C421.983 15.2904 421.337 15.9633 420.89 16.7656C418.956 20.1141 420.399 25.0351 422.251 27.7418C423.178 29.0671 424.261 30.5476 425.679 30.4951C427.066 30.4376 427.584 29.6106 429.258 29.6106C430.917 29.6106 431.403 30.4951 432.849 30.4617C434.338 30.4375 435.275 29.1305 436.17 27.7925C436.836 26.8482 437.348 25.8045 437.688 24.7C436.824 24.3343 436.086 23.7221 435.567 22.9398C435.047 22.1575 434.77 21.2397 434.769 20.3008Z" fill="white"/>
<path d="M432.037 12.2111C432.849 11.2369 433.249 9.98468 433.152 8.72046C431.912 8.85068 430.767 9.44323 429.944 10.3801C429.542 10.8377 429.234 11.3702 429.038 11.9469C428.842 12.5237 428.761 13.1335 428.801 13.7414C429.421 13.7478 430.034 13.6134 430.595 13.3483C431.155 13.0832 431.649 12.6944 432.037 12.2111Z" fill="white"/>
<path d="M452.302 27.1397H447.569L446.432 30.4962H444.427L448.911 18.0781H450.994L455.477 30.4962H453.438L452.302 27.1397ZM448.059 25.5909H451.811L449.962 20.1436H449.91L448.059 25.5909Z" fill="white"/>
<path d="M465.16 25.9697C465.16 28.7832 463.654 30.5908 461.381 30.5908C460.806 30.6209 460.233 30.4883 459.729 30.2082C459.226 29.9281 458.811 29.5117 458.533 29.0068H458.49V33.4912H456.631V21.4424H458.43V22.9482H458.464C458.755 22.4458 459.177 22.0316 459.685 21.7497C460.192 21.4679 460.767 21.3289 461.347 21.3476C463.645 21.3476 465.16 23.1641 465.16 25.9697ZM463.25 25.9697C463.25 24.1367 462.302 22.9316 460.857 22.9316C459.437 22.9316 458.482 24.1621 458.482 25.9697C458.482 27.794 459.437 29.0156 460.857 29.0156C462.302 29.0156 463.25 27.8193 463.25 25.9697Z" fill="white"/>
<path d="M475.124 25.9697C475.124 28.7832 473.619 30.5908 471.346 30.5908C470.771 30.6209 470.198 30.4883 469.694 30.2082C469.19 29.9281 468.776 29.5117 468.498 29.0068H468.455V33.4912H466.596V21.4424H468.395V22.9482H468.429C468.72 22.4458 469.142 22.0316 469.649 21.7497C470.157 21.4679 470.732 21.3289 471.312 21.3476C473.61 21.3476 475.124 23.164 475.124 25.9697ZM473.214 25.9697C473.214 24.1367 472.267 22.9316 470.822 22.9316C469.402 22.9316 468.447 24.1621 468.447 25.9697C468.447 27.794 469.402 29.0156 470.822 29.0156C472.267 29.0156 473.214 27.8193 473.214 25.9697Z" fill="white"/>
<path d="M481.71 27.0362C481.848 28.2676 483.044 29.0761 484.679 29.0761C486.246 29.0761 487.373 28.2676 487.373 27.1572C487.373 26.1933 486.693 25.6162 485.084 25.2207L483.474 24.833C481.194 24.2822 480.135 23.2158 480.135 21.4853C480.135 19.3428 482.002 17.8711 484.654 17.8711C487.278 17.8711 489.077 19.3428 489.137 21.4853H487.261C487.149 20.2461 486.125 19.498 484.627 19.498C483.13 19.498 482.106 20.2549 482.106 21.3564C482.106 22.2344 482.76 22.751 484.361 23.1464L485.729 23.4824C488.277 24.0849 489.335 25.1084 489.335 26.9247C489.335 29.248 487.485 30.703 484.542 30.703C481.788 30.703 479.928 29.2822 479.808 27.0361L481.71 27.0362Z" fill="white"/>
<path d="M493.346 19.2998V21.4424H495.068V22.9141H493.346V27.9053C493.346 28.6807 493.691 29.042 494.448 29.042C494.652 29.0384 494.856 29.0241 495.059 28.999V30.4619C494.719 30.5255 494.373 30.5543 494.027 30.5478C492.194 30.5478 491.479 29.8593 491.479 28.1035V22.9141H490.163V21.4424H491.479V19.2998H493.346Z" fill="white"/>
<path d="M496.065 25.97C496.065 23.1213 497.743 21.3313 500.359 21.3313C502.984 21.3313 504.654 23.1213 504.654 25.97C504.654 28.8264 502.993 30.6086 500.359 30.6086C497.726 30.6086 496.065 28.8264 496.065 25.97ZM502.76 25.97C502.76 24.0158 501.865 22.8625 500.359 22.8625C498.853 22.8625 497.958 24.0246 497.958 25.97C497.958 27.9319 498.853 29.0764 500.359 29.0764C501.865 29.0764 502.76 27.9319 502.76 25.97Z" fill="white"/>
<path d="M506.186 21.4425H507.959V22.9835H508.002C508.121 22.5022 508.403 22.0769 508.8 21.779C509.197 21.4811 509.684 21.3288 510.179 21.3478C510.393 21.347 510.607 21.3703 510.816 21.4171V23.1554C510.546 23.0728 510.264 23.0348 509.981 23.0431C509.711 23.0321 509.442 23.0797 509.192 23.1826C508.942 23.2855 508.718 23.4413 508.534 23.6391C508.35 23.837 508.211 24.0724 508.126 24.3291C508.042 24.5857 508.014 24.8576 508.044 25.1261V30.4963H506.186V21.4425Z" fill="white"/>
<path d="M519.384 27.8371C519.134 29.4806 517.534 30.6085 515.486 30.6085C512.852 30.6085 511.217 28.8439 511.217 26.0129C511.217 23.1731 512.861 21.3313 515.408 21.3313C517.913 21.3313 519.488 23.052 519.488 25.797V26.4338H513.093V26.5461C513.064 26.8793 513.105 27.2149 513.216 27.5308C513.326 27.8466 513.502 28.1354 513.732 28.3779C513.963 28.6205 514.242 28.8112 514.552 28.9375C514.861 29.0638 515.195 29.1228 515.529 29.1105C515.968 29.1516 516.409 29.0499 516.785 28.8205C517.162 28.591 517.455 28.2461 517.62 27.8371H519.384ZM513.102 25.1349H517.628C517.645 24.8354 517.6 24.5355 517.495 24.2543C517.39 23.9731 517.229 23.7166 517.02 23.5008C516.812 23.2851 516.561 23.1147 516.283 23.0005C516.006 22.8863 515.708 22.8307 515.408 22.8371C515.105 22.8353 514.805 22.8935 514.525 23.0082C514.245 23.1229 513.99 23.292 513.776 23.5056C513.562 23.7193 513.392 23.9732 513.276 24.2529C513.16 24.5325 513.101 24.8322 513.102 25.1349Z" fill="white"/>
<path d="M447.826 8.73114C448.216 8.70318 448.607 8.76204 448.971 8.90347C449.335 9.0449 449.663 9.26538 449.932 9.549C450.2 9.83262 450.403 10.1723 450.524 10.5436C450.646 10.9148 450.683 11.3084 450.634 11.6959C450.634 13.6022 449.604 14.6979 447.826 14.6979H445.671V8.73114H447.826ZM446.598 13.8541H447.723C448.001 13.8707 448.28 13.8251 448.538 13.7205C448.797 13.6158 449.029 13.4549 449.217 13.2493C449.406 13.0438 449.546 12.7988 449.628 12.5322C449.71 12.2655 449.731 11.984 449.69 11.7081C449.728 11.4333 449.705 11.1535 449.621 10.8888C449.538 10.6242 449.398 10.3812 449.21 10.1773C449.022 9.97333 448.791 9.81352 448.534 9.70928C448.277 9.60505 448 9.55897 447.723 9.57434H446.598V13.8541Z" fill="white"/>
<path d="M451.681 12.4443C451.652 12.1484 451.686 11.8498 451.78 11.5677C451.874 11.2857 452.026 11.0263 452.226 10.8064C452.426 10.5864 452.669 10.4106 452.941 10.2903C453.213 10.1701 453.507 10.1079 453.804 10.1079C454.101 10.1079 454.395 10.1701 454.667 10.2903C454.939 10.4106 455.183 10.5864 455.383 10.8064C455.583 11.0263 455.734 11.2857 455.828 11.5677C455.922 11.8498 455.956 12.1484 455.928 12.4443C455.957 12.7405 455.923 13.0395 455.83 13.322C455.736 13.6045 455.584 13.8643 455.384 14.0847C455.184 14.3051 454.94 14.4813 454.668 14.6018C454.396 14.7223 454.102 14.7846 453.804 14.7846C453.507 14.7846 453.212 14.7223 452.94 14.6018C452.668 14.4813 452.424 14.3051 452.224 14.0847C452.024 13.8643 451.872 13.6045 451.779 13.322C451.685 13.0395 451.652 12.7405 451.681 12.4443ZM455.014 12.4443C455.014 11.4682 454.575 10.8974 453.806 10.8974C453.033 10.8974 452.599 11.4682 452.599 12.4443C452.599 13.4282 453.033 13.9946 453.806 13.9946C454.575 13.9945 455.014 13.4242 455.014 12.4443Z" fill="white"/>
<path d="M461.573 14.6978H460.651L459.721 11.3814H459.65L458.724 14.6978H457.811L456.569 10.1948H457.471L458.277 13.6309H458.344L459.27 10.1948H460.122L461.048 13.6309H461.118L461.921 10.1948H462.81L461.573 14.6978Z" fill="white"/>
<path d="M463.854 10.1949H464.709V10.9102H464.775C464.888 10.6533 465.078 10.4379 465.319 10.2941C465.56 10.1503 465.84 10.0852 466.119 10.1079C466.338 10.0915 466.558 10.1245 466.763 10.2046C466.968 10.2847 467.151 10.4098 467.301 10.5707C467.451 10.7315 467.562 10.924 467.628 11.1338C467.693 11.3436 467.71 11.5654 467.678 11.7828V14.6979H466.789V12.006C466.789 11.2823 466.475 10.9224 465.817 10.9224C465.669 10.9155 465.52 10.9408 465.382 10.9966C465.244 11.0525 465.12 11.1375 465.018 11.2459C464.915 11.3543 464.838 11.4835 464.79 11.6246C464.743 11.7657 464.726 11.9155 464.742 12.0636V14.6979H463.854V10.1949Z" fill="white"/>
<path d="M469.094 8.43701H469.982V14.6978H469.094V8.43701Z" fill="white"/>
<path d="M471.218 12.4444C471.189 12.1485 471.223 11.8499 471.317 11.5678C471.411 11.2857 471.563 11.0264 471.763 10.8064C471.963 10.5864 472.206 10.4106 472.478 10.2903C472.75 10.17 473.044 10.1079 473.342 10.1079C473.639 10.1079 473.933 10.17 474.205 10.2903C474.477 10.4106 474.72 10.5864 474.92 10.8064C475.12 11.0264 475.272 11.2857 475.366 11.5678C475.46 11.8499 475.494 12.1485 475.465 12.4444C475.494 12.7407 475.461 13.0396 475.367 13.3222C475.273 13.6047 475.122 13.8645 474.922 14.0849C474.722 14.3053 474.478 14.4815 474.206 14.602C473.933 14.7225 473.639 14.7848 473.342 14.7848C473.044 14.7848 472.75 14.7225 472.477 14.602C472.205 14.4815 471.961 14.3053 471.761 14.0849C471.561 13.8645 471.41 13.6047 471.316 13.3222C471.222 13.0396 471.189 12.7407 471.218 12.4444ZM474.551 12.4444C474.551 11.4683 474.112 10.8975 473.343 10.8975C472.57 10.8975 472.136 11.4683 472.136 12.4444C472.136 13.4283 472.57 13.9947 473.343 13.9947C474.112 13.9947 474.551 13.4244 474.551 12.4444Z" fill="white"/>
<path d="M476.401 13.4244C476.401 12.6138 477.004 12.1465 478.076 12.0801L479.295 12.0098V11.6211C479.295 11.1455 478.981 10.877 478.373 10.877C477.877 10.877 477.534 11.0591 477.435 11.3775H476.575C476.665 10.604 477.393 10.1079 478.415 10.1079C479.543 10.1079 480.18 10.6699 480.18 11.6211V14.6979H479.325V14.065H479.254C479.112 14.292 478.911 14.4771 478.674 14.6013C478.436 14.7255 478.17 14.7844 477.902 14.7721C477.713 14.7917 477.522 14.7716 477.341 14.7129C477.16 14.6542 476.994 14.5582 476.852 14.4313C476.711 14.3043 476.598 14.1491 476.52 13.9757C476.442 13.8022 476.402 13.6145 476.401 13.4244ZM479.295 13.0396V12.6631L478.196 12.7335C477.576 12.775 477.294 12.9859 477.294 13.3829C477.294 13.7882 477.646 14.024 478.129 14.024C478.271 14.0383 478.414 14.024 478.55 13.982C478.686 13.9399 478.812 13.8708 478.921 13.779C479.03 13.6872 479.119 13.5744 479.183 13.4473C479.248 13.3203 479.286 13.1817 479.295 13.0396Z" fill="white"/>
<path d="M481.348 12.4444C481.348 11.0215 482.08 10.1202 483.217 10.1202C483.499 10.1072 483.778 10.1746 484.023 10.3145C484.267 10.4544 484.467 10.661 484.598 10.9102H484.665V8.43701H485.553V14.6978H484.702V13.9864H484.631C484.49 14.2339 484.283 14.4379 484.034 14.5764C483.785 14.7149 483.502 14.7825 483.217 14.772C482.072 14.7721 481.348 13.8707 481.348 12.4444ZM482.266 12.4444C482.266 13.3995 482.716 13.9742 483.469 13.9742C484.218 13.9742 484.681 13.3912 484.681 12.4483C484.681 11.5098 484.213 10.9185 483.469 10.9185C482.721 10.9185 482.266 11.4971 482.266 12.4444Z" fill="white"/>
<path d="M489.23 12.4443C489.202 12.1484 489.236 11.8498 489.329 11.5677C489.423 11.2857 489.575 11.0263 489.775 10.8064C489.975 10.5864 490.219 10.4106 490.49 10.2903C490.762 10.1701 491.056 10.1079 491.353 10.1079C491.651 10.1079 491.945 10.1701 492.217 10.2903C492.488 10.4106 492.732 10.5864 492.932 10.8064C493.132 11.0263 493.284 11.2857 493.378 11.5677C493.471 11.8498 493.505 12.1484 493.477 12.4443C493.506 12.7405 493.472 13.0395 493.379 13.322C493.285 13.6045 493.134 13.8643 492.934 14.0847C492.734 14.3051 492.49 14.4813 492.218 14.6018C491.945 14.7223 491.651 14.7846 491.353 14.7846C491.056 14.7846 490.762 14.7223 490.489 14.6018C490.217 14.4813 489.973 14.3051 489.773 14.0847C489.573 13.8643 489.422 13.6045 489.328 13.322C489.235 13.0395 489.201 12.7405 489.23 12.4443ZM492.563 12.4443C492.563 11.4682 492.124 10.8974 491.355 10.8974C490.583 10.8974 490.148 11.4682 490.148 12.4443C490.148 13.4282 490.583 13.9946 491.355 13.9946C492.124 13.9945 492.563 13.4242 492.563 12.4443Z" fill="white"/>
<path d="M494.669 10.1949H495.525V10.9102H495.591C495.704 10.6533 495.894 10.4379 496.135 10.2941C496.376 10.1503 496.656 10.0852 496.935 10.1079C497.154 10.0915 497.374 10.1245 497.579 10.2046C497.783 10.2847 497.967 10.4098 498.117 10.5707C498.267 10.7315 498.378 10.924 498.444 11.1338C498.509 11.3436 498.526 11.5654 498.494 11.7828V14.6979H497.605V12.006C497.605 11.2823 497.291 10.9224 496.633 10.9224C496.485 10.9155 496.336 10.9408 496.198 10.9966C496.06 11.0525 495.936 11.1375 495.834 11.2459C495.731 11.3543 495.654 11.4835 495.606 11.6246C495.559 11.7657 495.542 11.9155 495.558 12.0636V14.6979H494.669V10.1949Z" fill="white"/>
<path d="M503.515 9.07373V10.2154H504.491V10.9639H503.515V13.2793C503.515 13.751 503.71 13.9575 504.152 13.9575C504.265 13.9572 504.378 13.9503 504.491 13.937V14.6773C504.331 14.7058 504.169 14.721 504.007 14.7227C503.019 14.7227 502.626 14.375 502.626 13.5069V10.9639H501.911V10.2153H502.626V9.07373H503.515Z" fill="white"/>
<path d="M505.705 8.43701H506.585V10.9185H506.656C506.774 10.6592 506.969 10.4426 507.215 10.2982C507.46 10.1539 507.745 10.0888 508.029 10.1118C508.247 10.1 508.465 10.1364 508.667 10.2184C508.869 10.3005 509.051 10.4261 509.199 10.5865C509.347 10.7468 509.458 10.9379 509.524 11.146C509.59 11.3541 509.609 11.5742 509.58 11.7906V14.6978H508.69V12.0098C508.69 11.2905 508.355 10.9263 507.727 10.9263C507.574 10.9138 507.421 10.9348 507.277 10.9878C507.133 11.0409 507.003 11.1247 506.895 11.2334C506.787 11.3422 506.704 11.4732 506.652 11.6173C506.6 11.7615 506.58 11.9152 506.593 12.0679V14.6978H505.705V8.43701Z" fill="white"/>
<path d="M514.761 13.4821C514.641 13.8936 514.379 14.2496 514.022 14.4878C513.666 14.7259 513.236 14.8311 512.81 14.7848C512.513 14.7926 512.219 14.7358 511.946 14.6183C511.674 14.5008 511.43 14.3253 511.232 14.1042C511.034 13.8831 510.887 13.6215 510.8 13.3377C510.713 13.0538 510.689 12.7545 510.73 12.4606C510.691 12.1657 510.715 11.8657 510.801 11.5811C510.888 11.2964 511.034 11.0336 511.231 10.8105C511.428 10.5875 511.671 10.4093 511.942 10.2881C512.214 10.1669 512.509 10.1054 512.806 10.108C514.059 10.108 514.815 10.964 514.815 12.378V12.6881H511.635V12.7379C511.621 12.9032 511.642 13.0695 511.696 13.2263C511.75 13.383 511.837 13.5267 511.95 13.6482C512.062 13.7696 512.2 13.8662 512.352 13.9316C512.504 13.997 512.669 14.0298 512.834 14.0279C513.047 14.0535 513.262 14.0152 513.453 13.918C513.644 13.8208 513.801 13.669 513.906 13.482L514.761 13.4821ZM511.635 12.0309H513.91C513.921 11.8797 513.9 11.7279 513.849 11.5852C513.798 11.4425 513.718 11.312 513.614 11.2022C513.509 11.0923 513.383 11.0055 513.243 10.9473C513.103 10.8891 512.953 10.8609 512.801 10.8643C512.648 10.8624 512.495 10.8913 512.353 10.9492C512.21 11.0072 512.081 11.093 511.972 11.2017C511.864 11.3105 511.778 11.4398 511.72 11.5822C511.662 11.7246 511.633 11.8772 511.635 12.0309Z" fill="white"/>
</g>
<g clip-path="url(#clip4_5_61)">
<path d="M255 0C243.96 0 235 8.96 235 20C235 31.04 243.96 40 255 40C266.04 40 275 31.04 275 20C275 8.96 266.04 0 255 0ZM255 6C258.32 6 261 8.68 261 12C261 15.32 258.32 18 255 18C251.68 18 249 15.32 249 12C249 8.68 251.68 6 255 6ZM255 34.4C250 34.4 245.58 31.84 243 27.96C243.06 23.98 251 21.8 255 21.8C258.98 21.8 266.94 23.98 267 27.96C264.42 31.84 260 34.4 255 34.4Z" fill="white"/>
</g>
<defs>
<linearGradient id="paint0_linear_5_61" x1="296.8" y1="8.70967" x2="280.017" y2="25.4921" gradientUnits="userSpaceOnUse">
<stop stop-color="#00A0FF"/>
<stop offset="0.00657445" stop-color="#00A1FF"/>
<stop offset="0.2601" stop-color="#00BEFF"/>
<stop offset="0.5122" stop-color="#00D2FF"/>
<stop offset="0.7604" stop-color="#00DFFF"/>
<stop offset="1" stop-color="#00E3FF"/>
</linearGradient>
<linearGradient id="paint1_linear_5_61" x1="308.834" y1="20.0013" x2="284.637" y2="20.0013" gradientUnits="userSpaceOnUse">
<stop stop-color="#FFE000"/>
<stop offset="0.4087" stop-color="#FFBD00"/>
<stop offset="0.7754" stop-color="#FFA500"/>
<stop offset="1" stop-color="#FF9C00"/>
</linearGradient>
<linearGradient id="paint2_linear_5_61" x1="299.827" y1="22.2961" x2="277.069" y2="45.0544" gradientUnits="userSpaceOnUse">
<stop stop-color="#FF3A44"/>
<stop offset="1" stop-color="#C31162"/>
</linearGradient>
<linearGradient id="paint3_linear_5_61" x1="282.297" y1="0.176201" x2="292.46" y2="10.3387" gradientUnits="userSpaceOnUse">
<stop stop-color="#32A071"/>
<stop offset="0.0685" stop-color="#2DA771"/>
<stop offset="0.4762" stop-color="#15CF74"/>
<stop offset="0.8009" stop-color="#06E775"/>
<stop offset="1" stop-color="#00F076"/>
</linearGradient>
<clipPath id="clip0_5_61">
<rect width="205" height="40" fill="white"/>
</clipPath>
<clipPath id="clip1_5_61">
<rect width="30" height="30" fill="white" transform="translate(205 5)"/>
</clipPath>
<clipPath id="clip2_5_61">
<rect width="135" height="40" fill="white" transform="translate(275)"/>
</clipPath>
<clipPath id="clip3_5_61">
<rect width="120" height="40" fill="white" transform="translate(410)"/>
</clipPath>
<clipPath id="clip4_5_61">
<rect width="40" height="40" fill="white" transform="translate(235)"/>
</clipPath>
</defs>
</svg>
